<svg width="106" height="38" viewBox="0 0 106 38" fill="none" xmlns="http://www.w3.org/2000/svg">
<path fill-rule="evenodd" clip-rule="evenodd" d="M8.72312 4.08594C10.2862 4.08726 11.7848 4.70877 12.8901 5.81401C13.9953 6.91925 14.6168 8.41789 14.6181 9.98094V28.2159C14.6181 29.7794 13.997 31.2788 12.8915 32.3843C11.786 33.4899 10.2866 34.1109 8.72312 34.1109C7.15967 34.1109 5.66026 33.4899 4.55473 32.3843C3.4492 31.2788 2.82813 29.7794 2.82812 28.2159V9.98094C2.82945 8.41789 3.45095 6.91925 4.55619 5.81401C5.66143 4.70877 7.16008 4.08726 8.72312 4.08594Z" fill="#FB9678" stroke="#FB9678"/>
<path d="M22 3H9C5.68629 3 3 5.68629 3 9C3 12.3137 5.68629 15 9 15H22C25.3137 15 28 12.3137 28 9C28 5.68629 25.3137 3 22 3Z" fill="#03C9D7" stroke="#03C9D7"/>
<path d="M21.703 30.2971C25.1979 30.2971 28.031 27.464 28.031 23.9691C28.031 20.4743 25.1979 17.6411 21.703 17.6411C18.2081 17.6411 15.375 20.4743 15.375 23.9691C15.375 27.464 18.2081 30.2971 21.703 30.2971Z" fill="#FEC90F" stroke="#FEC90F"/>
<path d="M49.732 15.126C48.4253 15.126 47.3893 14.902 46.624 14.454C45.868 14.006 45.49 13.3853 45.49 12.592C45.49 12.2467 45.6207 11.9667 45.882 11.752C46.1433 11.5373 46.582 11.43 47.198 11.43C47.2353 12.1113 47.4687 12.6293 47.898 12.984C48.3367 13.3293 48.948 13.502 49.732 13.502C50.3387 13.502 50.8147 13.3993 51.16 13.194C51.5053 12.9793 51.678 12.6853 51.678 12.312C51.678 12.06 51.6127 11.8547 51.482 11.696C51.3513 11.5373 51.1227 11.3927 50.796 11.262C50.4787 11.1313 50.012 10.996 49.396 10.856C48.4627 10.6413 47.73 10.3987 47.198 10.128C46.666 9.85733 46.2787 9.53533 46.036 9.162C45.8027 8.78867 45.686 8.322 45.686 7.762C45.686 7.23 45.8447 6.76333 46.162 6.362C46.4887 5.95133 46.9413 5.634 47.52 5.41C48.0987 5.186 48.7707 5.074 49.536 5.074C50.264 5.074 50.9173 5.172 51.496 5.368C52.0747 5.55467 52.5273 5.82067 52.854 6.166C53.1807 6.51133 53.344 6.908 53.344 7.356C53.344 7.70133 53.2133 7.97667 52.952 8.182C52.7 8.378 52.28 8.48533 51.692 8.504C51.6453 7.87867 51.454 7.42133 51.118 7.132C50.782 6.84267 50.2547 6.698 49.536 6.698C48.948 6.698 48.4953 6.79133 48.178 6.978C47.8607 7.16467 47.702 7.43533 47.702 7.79C47.702 8.03267 47.7627 8.23333 47.884 8.392C48.0053 8.54133 48.2107 8.67667 48.5 8.798C48.7987 8.91933 49.2233 9.04067 49.774 9.162C50.7353 9.37667 51.496 9.624 52.056 9.904C52.6253 10.1747 53.036 10.5013 53.288 10.884C53.5493 11.2667 53.68 11.738 53.68 12.298C53.68 12.8673 53.5167 13.3667 53.19 13.796C52.8727 14.2253 52.4153 14.5567 51.818 14.79C51.23 15.014 50.5347 15.126 49.732 15.126ZM54.9438 9.148C54.9438 8.79333 55.0932 8.49467 55.3918 8.252C55.6905 8 56.1292 7.874 56.7078 7.874V8.63C56.5958 8.77 56.5072 8.896 56.4418 9.008L56.5118 9.064C56.8012 8.66267 57.1232 8.364 57.4778 8.168C57.8418 7.972 58.2945 7.874 58.8358 7.874C59.3398 7.874 59.7878 7.98133 60.1798 8.196C60.5812 8.41067 60.8892 8.714 61.1038 9.106C61.3278 9.48867 61.4398 9.92733 61.4398 10.422V12.578C61.4398 13.082 61.3138 13.53 61.0618 13.922C60.8192 14.3047 60.4785 14.6033 60.0398 14.818C59.6105 15.0233 59.1252 15.126 58.5838 15.126C58.2665 15.126 57.9212 15.0607 57.5478 14.93C57.1838 14.7993 56.8805 14.6173 56.6378 14.384L56.5818 14.454C56.6285 14.5287 56.7312 14.622 56.8898 14.734V16.666C56.8898 17.506 56.2412 17.926 54.9438 17.926V9.148ZM58.1918 13.474C58.6212 13.474 58.9478 13.3853 59.1718 13.208C59.4052 13.0307 59.5218 12.7787 59.5218 12.452V10.562C59.5218 10.226 59.4052 9.96933 59.1718 9.792C58.9478 9.61467 58.6212 9.526 58.1918 9.526C57.7998 9.526 57.4778 9.61933 57.2258 9.806C56.9832 9.98333 56.8618 10.212 56.8618 10.492V12.508C56.8618 12.7787 56.9832 13.0073 57.2258 13.194C57.4778 13.3807 57.7998 13.474 58.1918 13.474ZM65.0198 15.126C64.5624 15.126 64.1331 15.0373 63.7318 14.86C63.3398 14.6733 63.0224 14.4073 62.7798 14.062C62.5371 13.7073 62.4158 13.2827 62.4158 12.788C62.4158 12.2933 62.5464 11.8687 62.8078 11.514C63.0691 11.15 63.4144 10.8747 63.8438 10.688C64.2824 10.5013 64.7584 10.408 65.2718 10.408C65.7011 10.408 66.0791 10.4733 66.4058 10.604C66.7418 10.7347 67.0544 10.926 67.3438 11.178L67.4138 11.094C67.2178 10.9167 67.0638 10.7907 66.9518 10.716V10.534C66.9518 10.1793 66.8211 9.89933 66.5598 9.694C66.3078 9.47933 65.9484 9.372 65.4818 9.372C65.0711 9.372 64.7071 9.44667 64.3898 9.596C64.0724 9.74533 63.8158 9.96467 63.6198 10.254C63.3958 10.198 63.2044 10.0953 63.0458 9.946C62.8964 9.78733 62.8218 9.61467 62.8218 9.428C62.8218 9.13867 62.9478 8.87733 63.1998 8.644C63.4518 8.40133 63.7924 8.21467 64.2218 8.084C64.6604 7.944 65.1411 7.874 65.6638 7.874C66.6811 7.874 67.4651 8.10733 68.0158 8.574C68.5664 9.04067 68.8418 9.67533 68.8418 10.478V13.88C68.8418 14.3187 68.6971 14.636 68.4078 14.832C68.1278 15.028 67.6798 15.126 67.0638 15.126V14.58C67.2038 14.4493 67.3158 14.3327 67.3998 14.23L67.3298 14.16C67.0218 14.4773 66.6998 14.72 66.3638 14.888C66.0278 15.0467 65.5798 15.126 65.0198 15.126ZM65.5518 13.754C65.9998 13.754 66.3498 13.67 66.6018 13.502C66.8538 13.334 66.9798 13.0913 66.9798 12.774C66.9798 12.466 66.8491 12.2233 66.5878 12.046C66.3358 11.8687 65.9904 11.78 65.5518 11.78C65.1598 11.78 64.8471 11.8687 64.6138 12.046C64.3898 12.2233 64.2778 12.466 64.2778 12.774C64.2778 13.0913 64.3898 13.334 64.6138 13.502C64.8471 13.67 65.1598 13.754 65.5518 13.754ZM74.105 9.526C73.545 9.526 73.0923 9.67067 72.747 9.96C72.4017 10.2493 72.229 10.6133 72.229 11.052V14.006C72.229 14.4073 72.0703 14.6967 71.753 14.874C71.445 15.042 70.9643 15.126 70.311 15.126V9.33C70.311 8.86333 70.465 8.504 70.773 8.252C71.081 8 71.5383 7.874 72.145 7.874V8.7C72.005 8.84933 71.8883 9.008 71.795 9.176L71.893 9.232C72.481 8.32667 73.2137 7.874 74.091 7.874C74.511 7.874 74.8283 7.986 75.043 8.21C75.2577 8.434 75.365 8.71867 75.365 9.064C75.365 9.32533 75.295 9.554 75.155 9.75C74.8937 9.60067 74.5437 9.526 74.105 9.526ZM78.9978 15.126C78.4191 15.126 77.8825 15.0093 77.3878 14.776C76.9025 14.5427 76.5151 14.2253 76.2258 13.824C75.9365 13.4227 75.7918 12.9747 75.7918 12.48V10.688C75.7918 10.1653 75.9365 9.68933 76.2258 9.26C76.5245 8.82133 76.9211 8.48067 77.4158 8.238C77.9105 7.99533 78.4425 7.874 79.0118 7.874C79.5718 7.874 80.0851 7.99067 80.5518 8.224C81.0278 8.448 81.4011 8.77 81.6718 9.19C81.9425 9.60067 82.0778 10.0673 82.0778 10.59V11.346C82.0778 11.57 81.9938 11.7613 81.8258 11.92C81.6578 12.0693 81.4431 12.144 81.1818 12.144H77.6538V12.34C77.6538 12.7133 77.7658 13.0213 77.9898 13.264C78.2231 13.4973 78.5638 13.614 79.0118 13.614C79.4505 13.614 79.7725 13.5207 79.9778 13.334C80.1831 13.138 80.2858 12.8953 80.2858 12.606C80.4725 12.5873 80.6125 12.578 80.7058 12.578C81.0885 12.578 81.3825 12.6573 81.5878 12.816C81.7931 12.9747 81.8958 13.208 81.8958 13.516C81.8958 13.768 81.7698 14.02 81.5178 14.272C81.2658 14.524 80.9158 14.7293 80.4678 14.888C80.0291 15.0467 79.5391 15.126 78.9978 15.126ZM80.3418 10.786V10.59C80.3418 10.2167 80.2158 9.92267 79.9638 9.708C79.7211 9.484 79.3991 9.372 78.9978 9.372C78.5965 9.372 78.2698 9.484 78.0178 9.708C77.7751 9.92267 77.6538 10.2167 77.6538 10.59V10.786H80.3418ZM45.77 24.138C45.77 23.8767 45.868 23.6573 46.064 23.48C46.2693 23.2933 46.5167 23.2 46.806 23.2H53.176C53.176 23.816 53.0733 24.264 52.868 24.544C52.6627 24.824 52.3313 24.964 51.874 24.964H47.828V27.106H51.496C51.496 27.722 51.3933 28.17 51.188 28.45C50.9827 28.73 50.6513 28.87 50.194 28.87H47.828V31.712C47.828 32.2067 47.6647 32.566 47.338 32.79C47.0207 33.014 46.498 33.126 45.77 33.126V24.138ZM56.818 33.126C56.006 33.126 55.3946 32.8973 54.984 32.44C54.5733 31.9733 54.368 31.3853 54.368 30.676V24.194C54.368 23.7927 54.522 23.508 54.83 23.34C55.1473 23.1627 55.6326 23.074 56.286 23.074V30.606C56.286 30.914 56.356 31.138 56.496 31.278C56.636 31.4087 56.8553 31.474 57.154 31.474C57.5086 31.474 57.8586 31.3807 58.204 31.194C58.3066 31.2873 58.386 31.404 58.442 31.544C58.5073 31.684 58.54 31.824 58.54 31.964C58.54 32.2627 58.3906 32.5333 58.092 32.776C57.8026 33.0093 57.378 33.126 56.818 33.126ZM62.3292 33.126C61.7132 33.126 61.1532 33.014 60.6492 32.79C60.1452 32.566 59.7485 32.258 59.4592 31.866C59.1698 31.4647 59.0252 31.012 59.0252 30.508V28.646C59.0252 28.1327 59.1652 27.666 59.4452 27.246C59.7252 26.8167 60.1172 26.4807 60.6212 26.238C61.1252 25.9953 61.6945 25.874 62.3292 25.874C62.9638 25.874 63.5332 25.9953 64.0372 26.238C64.5412 26.4807 64.9332 26.8167 65.2132 27.246C65.4932 27.666 65.6332 28.1327 65.6332 28.646V30.508C65.6332 31.012 65.4885 31.4647 65.1992 31.866C64.9098 32.258 64.5132 32.566 64.0092 32.79C63.5052 33.014 62.9452 33.126 62.3292 33.126ZM62.3292 31.474C62.7678 31.474 63.1085 31.376 63.3512 31.18C63.5938 30.984 63.7152 30.7133 63.7152 30.368V28.744C63.7152 28.38 63.5892 28.086 63.3372 27.862C63.0945 27.638 62.7585 27.526 62.3292 27.526C61.8998 27.526 61.5592 27.638 61.3072 27.862C61.0645 28.086 60.9432 28.38 60.9432 28.744V30.368C60.9432 30.7133 61.0645 30.984 61.3072 31.18C61.5498 31.376 61.8905 31.474 62.3292 31.474ZM69.3721 33.126C68.8868 33.126 68.4855 33.0327 68.1681 32.846C67.8508 32.6593 67.6455 32.3933 67.5521 32.048L65.9841 26.042C66.0681 25.9953 66.1941 25.958 66.3621 25.93C66.5301 25.8927 66.6888 25.874 66.8381 25.874C67.1461 25.874 67.4028 25.944 67.6081 26.084C67.8228 26.2147 67.9535 26.3873 68.0001 26.602L68.7001 30.074L68.5041 30.914L68.6021 30.942L69.7781 26.504C69.8341 26.3173 69.9415 26.168 70.1001 26.056C70.2588 25.9347 70.4595 25.874 70.7021 25.874C70.9541 25.874 71.1641 25.9347 71.3321 26.056C71.5001 26.168 71.6075 26.3173 71.6541 26.504L72.5501 30.186L72.3261 31.068L72.4241 31.096L73.4041 26.602C73.4508 26.3873 73.5815 26.2147 73.7961 26.084C74.0108 25.944 74.2675 25.874 74.5661 25.874C74.7248 25.874 74.8835 25.8927 75.0421 25.93C75.2101 25.958 75.3361 25.9953 75.4201 26.042L73.8661 32.048C73.7821 32.384 73.5581 32.65 73.1941 32.846C72.8301 33.0327 72.4055 33.126 71.9201 33.126L70.5761 27.638L70.4921 27.666L70.6601 28.31L69.3721 33.126Z" fill="#11142D"/>
</svg>
